<svg version="1.1" id="Layer_1" xmlns="http://www.w3.org/2000/svg" xmlns:xlink="http://www.w3.org/1999/xlink" x="0px" y="0px"
	 width="100%" viewBox="0 0 2000 2000" enable-background="new 0 0 2000 2000" xml:space="preserve">
<path fill="#000000" opacity="1.000000" stroke="none" 
	d="
M1327.000000,2001.000000 
	C886.166687,2001.000000 445.833344,2000.994385 5.500021,2001.092896 
	C1.750950,2001.093750 0.906737,2000.249023 0.907281,1996.500000 
	C1.003694,1332.833374 1.003694,669.166687 0.907281,5.500014 
	C0.906737,1.751003 1.751000,0.906735 5.500013,0.907280 
	C669.166687,1.003704 1332.833374,1.003704 1996.500000,0.907280 
	C2000.249023,0.906735 2001.093262,1.751001 2001.092651,5.500013 
	C2000.996338,669.166687 2000.996216,1332.833374 2001.092651,1996.500000 
	C2001.093140,2000.249023 2000.249268,2001.095215 1996.500000,2001.093384 
	C1773.500000,2000.989014 1550.500000,2001.000000 1327.000000,2001.000000 
z"/>
<path fill="#FBCB02" opacity="1.000000" stroke="none" 
	d="
M574.058716,710.020325 
	C567.266968,725.821533 559.311218,740.818481 553.146240,756.607056 
	C536.117493,800.218018 525.119080,845.248047 520.869080,891.961975 
	C518.249084,920.759399 518.293640,949.470215 520.867065,978.230225 
	C525.226868,1026.954468 536.783691,1073.869873 555.481995,1119.098633 
	C585.284973,1191.188232 629.923096,1252.456299 689.154114,1303.093384 
	C746.832947,1352.403442 812.679016,1385.953491 886.236267,1404.450439 
	C886.880371,1404.612427 887.513245,1404.819092 888.527649,1405.112427 
	C887.257385,1409.354736 883.413574,1411.434326 880.044678,1413.468628 
	C870.771484,1419.068359 862.106384,1425.600830 852.749634,1431.032227 
	C832.892700,1442.558594 813.742310,1455.240723 793.625732,1466.371338 
	C781.548706,1473.053589 769.421082,1479.710449 757.200684,1486.063843 
	C740.101379,1494.953613 722.811096,1503.545044 704.947998,1510.979126 
	C674.715332,1523.560913 643.558289,1532.685303 611.657837,1539.993896 
	C585.140686,1546.069336 558.280579,1549.717651 531.549500,1554.310913 
	C527.798218,1554.955322 524.224792,1556.479980 520.003357,1556.331299 
	C510.077911,1542.597412 503.369965,1527.544312 497.614746,1512.108154 
	C495.222351,1505.691528 496.752380,1498.546265 496.550568,1491.759399 
	C495.416901,1453.627197 493.724823,1415.491821 494.444122,1377.334473 
	C494.917877,1352.203491 495.782104,1327.084229 498.934723,1302.073486 
	C501.133850,1284.626831 501.596222,1266.949707 504.083984,1249.554199 
	C506.927826,1229.668579 508.551727,1209.666992 510.901642,1189.741943 
	C514.140198,1162.281860 518.099731,1134.958984 523.027222,1107.765137 
	C523.559387,1104.828125 524.606628,1101.987305 525.200317,1099.058228 
	C528.054199,1084.977539 517.901367,1072.369873 503.549896,1072.496094 
	C500.519501,1072.522827 498.601654,1071.567261 496.619843,1069.554810 
	C481.976654,1054.685791 469.400391,1038.081177 456.406342,1021.829834 
	C439.642334,1000.863403 421.215576,981.379944 403.070099,961.638184 
	C378.037354,934.403320 352.046661,908.095825 326.269836,881.576416 
	C309.999084,864.836975 294.851654,847.123718 283.107544,826.772583 
	C274.055481,811.086304 269.281464,794.062195 267.268433,775.800659 
	C268.331024,773.362061 270.426727,773.729919 272.112457,773.290710 
	C277.108917,771.988770 282.228546,771.194214 287.206207,769.830688 
	C291.434784,768.672485 294.447906,769.723022 297.086456,773.388794 
	C304.706635,783.975586 313.605377,793.407166 323.901733,801.460693 
	C335.813049,810.777283 348.902374,817.681702 364.297607,818.179138 
	C381.053741,818.720703 395.118256,812.098633 406.389069,799.774109 
	C420.055176,784.830444 426.122070,766.471069 429.603943,747.009827 
	C430.249176,743.403564 430.883636,739.792603 431.438141,736.174133 
	C432.141113,731.586731 434.642242,729.247742 439.219574,728.432739 
	C456.762054,725.309265 474.325134,722.330383 491.942169,719.649902 
	C505.272491,717.621582 518.587830,715.485046 531.890625,713.277405 
	C533.862000,712.950195 535.887878,712.605103 537.671021,711.730530 
	C548.949524,706.198425 560.870483,709.267517 572.540100,709.021667 
	C573.023926,709.011475 573.459717,709.382812 574.058716,710.020325 
z"/>
<path fill="#FBCB02" opacity="1.000000" stroke="none" 
	d="
M1484.407104,967.251831 
	C1484.385376,956.391357 1484.895142,945.740051 1484.891724,935.088928 
	C1484.864014,850.245972 1463.880981,770.927979 1421.607056,697.350098 
	C1411.676758,680.066467 1403.034546,661.862183 1390.134033,646.507385 
	C1356.541138,606.523315 1321.278809,568.170715 1277.497314,538.853088 
	C1261.193115,527.935120 1244.632812,517.368896 1227.833496,507.232086 
	C1217.144287,500.782166 1204.887939,497.587036 1193.456177,492.638519 
	C1155.464722,476.192841 1116.244019,463.679840 1075.206665,457.755157 
	C1034.714111,451.909149 994.034302,449.984650 953.224060,454.781799 
	C937.354858,456.647186 921.567383,458.990356 905.458984,461.871552 
	C904.654236,459.607697 906.331482,458.573334 907.665527,457.377899 
	C915.221741,450.606476 922.952332,444.031677 930.463562,437.209961 
	C932.351318,435.495483 934.566467,434.435120 936.860291,433.409454 
	C955.949463,424.873962 972.654053,413.070404 986.428284,397.229401 
	C998.253235,383.630066 1003.861389,367.476624 1005.578186,349.876373 
	C1006.981934,335.486389 1007.898743,321.010529 1007.564636,306.565277 
	C1007.206360,291.082581 1017.284668,283.552765 1028.823486,277.490997 
	C1039.143066,272.069702 1050.366333,268.733490 1062.074951,267.286194 
	C1073.759644,265.841797 1084.574097,267.907715 1094.760742,274.686157 
	C1095.076538,274.921783 1095.008423,274.998993 1095.032227,274.953430 
	C1095.226074,275.199493 1095.435059,275.459961 1095.888550,275.834717 
	C1096.094360,275.980042 1096.018066,275.983002 1096.020386,275.944855 
	C1096.546387,276.490387 1097.310181,276.837219 1097.869141,277.802002 
	C1098.065552,278.024261 1097.969849,278.053680 1097.946289,278.009521 
	C1098.050537,278.079315 1098.178223,278.193207 1098.402710,278.544800 
	C1102.836304,281.738312 1106.094238,285.817017 1108.838623,290.098236 
	C1116.524536,302.087982 1125.533447,313.082977 1134.256104,324.266754 
	C1143.197876,335.731445 1151.267700,347.753387 1159.590454,359.644043 
	C1186.156128,397.598175 1209.199951,437.896271 1236.987305,475.028961 
	C1254.309204,498.176544 1272.848267,520.145447 1295.099487,538.766113 
	C1299.375366,542.344360 1303.867432,545.384827 1309.784790,545.371155 
	C1311.680664,545.366760 1313.213867,546.539917 1314.783936,547.477966 
	C1326.350830,554.389160 1338.892334,558.608215 1352.098511,560.996948 
	C1353.735474,561.293091 1355.477417,561.374512 1356.974976,562.014160 
	C1365.914795,565.832336 1375.612061,566.197388 1384.947632,568.117981 
	C1399.602905,571.133118 1414.177368,574.548218 1428.442993,578.893677 
	C1446.182129,584.297241 1464.343994,588.122070 1481.966187,593.826538 
	C1489.996094,596.425781 1498.182373,598.478027 1506.076050,601.709290 
	C1514.145264,605.012512 1522.919312,606.629700 1531.428711,608.813965 
	C1544.116089,612.070679 1556.413940,616.512268 1568.836426,620.605286 
	C1585.536377,626.107849 1602.684448,630.315735 1619.201172,636.292419 
	C1640.137817,643.868530 1662.046021,649.375610 1680.927856,661.830872 
	C1691.876099,669.052673 1701.590576,677.852356 1710.250977,687.757080 
	C1714.194336,692.266968 1718.630737,696.401428 1721.140991,702.412231 
	C1722.194946,704.638367 1721.063843,705.951416 1719.933960,707.186584 
	C1711.747192,716.136047 1706.604370,727.020752 1700.477295,737.306519 
	C1694.774292,746.879944 1688.298096,755.986572 1682.074219,765.243408 
	C1669.429077,784.050903 1656.191162,802.413452 1641.779053,819.887878 
	C1626.119141,838.875366 1611.017090,858.307251 1594.169556,876.341064 
	C1577.206787,894.498108 1559.590576,911.943848 1540.792725,928.114624 
	C1524.644409,942.006287 1507.210449,954.317078 1489.291382,965.881897 
	C1487.903076,966.777893 1486.530762,967.808777 1484.407104,967.251831 
z"/>
<path fill="#FEFEFE" opacity="1.000000" stroke="none" 
	d="
M1095.074707,274.572632 
	C1094.306885,275.821686 1093.537598,275.176392 1092.913940,274.798065 
	C1080.113281,267.033203 1066.432739,266.853516 1052.424805,270.258636 
	C1044.180786,272.262634 1036.241577,275.199249 1028.571045,278.878967 
	C1022.622925,281.732483 1018.335266,286.739685 1013.092957,290.508850 
	C1010.578918,292.316376 1010.355347,295.708130 1009.963135,298.682800 
	C1008.350281,310.913086 1008.459656,323.238586 1007.993713,335.531311 
	C1007.294006,353.990356 1004.993958,372.156372 994.699951,388.049805 
	C980.793518,409.520630 960.842285,423.859741 937.845215,434.286652 
	C935.713501,435.253143 933.643860,436.183289 931.868958,437.764801 
	C923.051208,445.621948 914.191833,453.432465 905.202026,461.548004 
	C870.092468,468.949890 836.370972,480.127106 803.919495,494.727264 
	C752.233337,517.981201 705.950928,549.395630 665.288757,589.048889 
	C628.788147,624.643921 598.606628,664.890381 574.503540,710.157349 
	C565.919800,710.159485 557.602356,709.925842 549.284546,709.708862 
	C546.246155,709.629639 543.443481,710.151917 540.777710,711.905212 
	C537.365295,714.149658 533.274841,714.450623 529.330811,715.087158 
	C499.147491,719.958496 468.867920,724.234558 438.804626,729.857666 
	C434.818024,730.603333 433.251282,732.469910 432.662354,736.325378 
	C430.044220,753.465271 426.863495,770.465210 418.028351,785.785706 
	C409.716370,800.198975 398.761780,811.776855 382.543640,816.966003 
	C364.720947,822.668579 348.116608,818.765320 332.524628,809.175293 
	C317.716675,800.067505 305.744720,787.948730 295.796143,773.859070 
	C293.541901,770.666626 291.620361,770.030090 288.103119,770.917358 
	C281.503967,772.582031 274.794220,773.808411 267.737488,775.314575 
	C263.887360,747.184570 267.210175,720.320435 283.146057,695.931641 
	C288.525330,687.699036 294.423615,679.872375 300.617035,672.242249 
	C303.131775,669.144104 306.047852,667.141235 309.970764,666.171082 
	C382.496094,648.235413 453.338135,624.903259 523.726318,600.010437 
	C563.553833,585.925537 604.039734,573.930054 645.302612,564.549438 
	C663.498962,560.412781 678.899902,550.291077 692.177429,537.252441 
	C711.101196,518.669189 727.602844,497.908508 744.922546,477.885437 
	C766.270935,453.204956 785.351501,426.764923 803.387024,399.669708 
	C812.071289,386.623199 821.516724,374.051270 829.446411,360.450684 
	C834.251404,352.209534 840.676392,344.921661 846.254883,337.120605 
	C853.638123,326.795929 861.338135,316.714233 868.462585,306.181885 
	C876.881470,293.735840 886.697998,282.242828 895.324646,269.927582 
	C903.696472,257.976044 911.846436,245.954880 922.404297,235.713791 
	C926.439026,231.800110 931.168274,229.133148 935.966797,226.763275 
	C946.833008,221.396683 958.594666,218.553055 970.370361,215.795425 
	C989.735779,211.260498 1009.045349,211.768921 1028.214233,216.404984 
	C1037.399170,218.626419 1045.572632,223.410797 1053.527954,228.560272 
	C1067.636719,237.692917 1076.922363,251.252563 1087.111938,264.040649 
	C1089.797852,267.411591 1092.919922,270.433655 1095.074707,274.572632 
z"/>
<path fill="#F18210" opacity="1.000000" stroke="none" 
	d="
M519.767151,1556.497070 
	C531.413452,1551.850708 543.896118,1551.174561 556.091858,1549.109863 
	C573.531677,1546.157227 590.984131,1543.453125 608.227539,1539.315674 
	C623.996460,1535.531982 639.968567,1532.488281 655.435730,1527.606934 
	C675.015015,1521.427979 694.281921,1514.366455 713.116089,1506.076782 
	C737.456970,1495.363037 760.871704,1482.835449 784.182312,1470.160645 
	C803.673035,1459.562744 822.596497,1447.913330 841.549805,1436.335083 
	C854.401062,1428.484497 866.591003,1419.598877 879.789612,1412.292480 
	C882.886963,1410.577759 885.301697,1407.545654 888.691040,1405.456787 
	C920.434387,1412.389893 952.499512,1414.910767 984.666565,1417.391235 
	C1007.016663,1419.114746 1028.792480,1415.938354 1050.785522,1414.071411 
	C1080.164185,1411.577271 1109.129761,1406.719482 1137.602295,1399.002319 
	C1158.533325,1393.329224 1178.425781,1384.861084 1198.272583,1376.310791 
	C1202.191284,1374.622559 1204.112671,1374.595825 1206.790771,1378.683960 
	C1212.538940,1387.458862 1220.289917,1394.711548 1227.299316,1402.511475 
	C1250.354248,1428.166382 1274.305298,1452.971436 1298.684692,1477.366821 
	C1302.117188,1480.801758 1305.791992,1483.890625 1310.479858,1486.502197 
	C1306.028687,1490.189575 1301.466675,1493.988403 1300.642090,1499.458496 
	C1299.185059,1509.123291 1296.854858,1518.301025 1293.282837,1527.483154 
	C1290.325195,1535.086060 1293.315552,1542.934082 1298.906616,1549.197754 
	C1304.095093,1555.010010 1309.402710,1560.715820 1314.264648,1567.132935 
	C1306.459839,1563.967896 1298.605835,1560.918213 1290.860352,1557.614258 
	C1273.889038,1550.374756 1257.069336,1542.707764 1239.976685,1535.840576 
	C1212.944214,1524.979980 1186.792480,1512.257568 1160.226807,1500.416382 
	C1159.015137,1499.876221 1157.711670,1499.089233 1156.473999,1499.129272 
	C1142.745972,1499.573975 1132.397583,1490.285767 1120.144531,1486.740234 
	C1109.608887,1483.691772 1100.554565,1477.755615 1090.620117,1473.606079 
	C1076.730347,1467.804321 1063.014282,1461.400757 1048.733643,1456.760864 
	C1033.315674,1451.751465 1018.944946,1443.741943 1002.916443,1440.679932 
	C990.606262,1438.328125 979.211182,1442.316650 968.205383,1447.237793 
	C961.986450,1450.018433 956.210815,1453.789917 949.993225,1456.574219 
	C941.836121,1460.226929 933.537659,1463.621460 925.115356,1466.606079 
	C918.663452,1468.892578 913.019836,1472.740234 906.655090,1475.166504 
	C896.438660,1479.060791 886.279785,1483.128418 876.231873,1487.438110 
	C855.208252,1496.454956 833.939514,1504.875000 813.102295,1514.366943 
	C802.764404,1519.076172 791.438049,1521.991943 781.390869,1527.249878 
	C772.363770,1531.973877 762.421753,1534.742188 753.971436,1540.557617 
	C753.560913,1540.840088 753.150391,1541.248291 752.695312,1541.321655 
	C740.500671,1543.287720 730.802368,1551.455444 718.949951,1554.710327 
	C712.014709,1556.614746 705.257690,1560.377319 698.346313,1563.142334 
	C684.383179,1568.728638 671.125366,1576.284424 656.593201,1580.144531 
	C646.643433,1582.787598 637.556152,1588.202148 627.278381,1589.275757 
	C612.308411,1590.839478 597.343933,1593.792725 582.195007,1590.200317 
	C577.550781,1589.098877 572.651794,1590.113647 567.804382,1589.334961 
	C546.680725,1585.941040 531.293457,1574.387695 519.767151,1556.497070 
z"/>
<path fill="#F18210" opacity="1.000000" stroke="none" 
	d="
M1484.021729,967.465210 
	C1491.248047,964.105408 1497.232300,959.274719 1503.437744,954.903076 
	C1522.281372,941.627991 1540.354858,927.450439 1557.183594,911.563171 
	C1575.804932,893.983398 1593.630249,875.744568 1610.229980,856.262756 
	C1631.595215,831.188110 1652.538452,805.751343 1671.425171,778.764343 
	C1684.976440,759.401001 1698.485474,739.936523 1709.566772,718.956299 
	C1712.592407,713.228149 1717.272949,708.658691 1721.154907,703.102051 
	C1726.681519,711.329468 1729.797852,720.780945 1732.325439,730.556946 
	C1737.205078,749.430298 1736.510986,768.548889 1734.984619,787.638855 
	C1734.520996,793.439514 1730.894531,798.998352 1730.496338,804.790344 
	C1730.073975,810.935791 1729.489990,816.020203 1723.938232,819.885681 
	C1721.879639,821.319092 1720.800171,824.565552 1719.920044,827.200806 
	C1718.069458,832.741760 1712.832642,835.537354 1709.973389,840.165833 
	C1705.115356,848.029724 1698.462524,854.441833 1692.235596,861.021240 
	C1684.652832,869.033386 1677.714355,877.604187 1670.086426,885.568848 
	C1666.477905,889.336670 1661.876709,892.473877 1659.627441,897.294189 
	C1655.790283,905.516846 1647.752930,909.623474 1642.033569,915.994080 
	C1633.166870,925.870605 1624.207642,935.708191 1615.342529,945.580139 
	C1609.750122,951.807861 1604.911621,958.931519 1598.690063,964.508972 
	C1591.552856,970.907288 1586.538208,979.057312 1579.318115,985.437805 
	C1572.746094,991.245483 1567.486816,998.862732 1561.135132,1004.832275 
	C1554.011230,1011.527771 1548.265503,1019.360229 1541.288330,1026.147339 
	C1534.023804,1033.213989 1526.709717,1040.445435 1520.128540,1048.309448 
	C1513.038574,1056.781250 1505.536499,1064.944092 1497.759766,1072.791260 
	C1493.510620,1077.078979 1488.819824,1080.997681 1483.602173,1084.285156 
	C1476.045776,1089.046021 1472.571899,1096.234619 1473.654785,1105.159302 
	C1479.871948,1156.408325 1484.692505,1207.796631 1488.722778,1259.253662 
	C1491.595581,1295.932617 1495.135864,1332.546631 1498.583374,1369.640015 
	C1491.704468,1366.907837 1484.920898,1364.951782 1477.736572,1366.972168 
	C1475.988037,1367.463989 1473.731201,1367.685303 1472.684448,1368.883667 
	C1466.417114,1376.059082 1457.412842,1372.502808 1450.005737,1375.015015 
	C1448.608887,1375.488892 1447.892334,1374.593018 1447.144165,1373.629761 
	C1425.213989,1345.393921 1399.074585,1321.023560 1374.836914,1294.906128 
	C1367.812256,1287.336792 1360.946167,1279.613159 1353.720703,1272.241089 
	C1351.056152,1269.522339 1351.434326,1268.040405 1353.904297,1265.518188 
	C1403.525146,1214.849976 1437.059937,1154.340698 1460.188965,1087.975830 
	C1473.692505,1049.230347 1481.558594,1009.013306 1484.021729,967.465210 
z"/>
<path fill="#FEFEFE" opacity="1.000000" stroke="none" 
	d="
M1409.125732,1474.133423 
	C1430.515015,1455.046387 1452.834106,1437.547974 1473.138306,1417.776733 
	C1475.819702,1415.165771 1476.704956,1417.212524 1478.051025,1418.676880 
	C1497.215210,1439.526001 1516.453247,1460.308350 1535.482422,1481.280029 
	C1560.471680,1508.820435 1587.112915,1534.685547 1614.277954,1560.048218 
	C1623.283203,1568.456055 1631.671997,1577.520874 1640.482422,1586.142456 
	C1642.694336,1588.306885 1642.839844,1589.694336 1640.753296,1592.148926 
	C1625.085938,1610.581177 1607.853638,1627.516602 1590.807129,1644.624268 
	C1567.748535,1667.765747 1543.872803,1690.016479 1518.421509,1710.547241 
	C1515.459839,1712.936401 1513.937256,1712.667847 1511.276367,1710.145264 
	C1480.745483,1681.199097 1453.840332,1648.943970 1426.230957,1617.330688 
	C1406.404785,1594.629272 1386.462524,1572.027344 1366.837646,1549.153076 
	C1360.460327,1541.719971 1355.053711,1533.461426 1348.922485,1525.805298 
	C1347.051758,1523.469360 1347.575073,1522.659668 1349.647827,1521.062378 
	C1366.526245,1508.055420 1383.321533,1494.940186 1400.100708,1481.804810 
	C1403.114014,1479.446045 1405.935791,1476.842529 1409.125732,1474.133423 
z"/>
<path fill="#FAFAFA" opacity="1.000000" stroke="none" 
	d="
M1410.907715,793.006958 
	C1429.568970,846.688904 1437.275757,901.468506 1434.336060,957.882019 
	C1430.911499,1023.601074 1413.670288,1085.325684 1381.634766,1142.748657 
	C1368.351196,1166.558838 1354.658813,1190.368652 1336.633423,1210.947510 
	C1311.341553,1239.822144 1283.836548,1266.757080 1252.320679,1288.739136 
	C1198.037720,1326.601318 1138.760986,1353.022095 1072.351074,1361.115601 
	C1050.703979,1363.753784 1029.028320,1366.272217 1007.302795,1368.095093 
	C998.927612,1368.797852 990.379089,1367.377930 981.906616,1366.987671 
	C939.104980,1365.015137 897.388123,1357.648560 856.922852,1343.148682 
	C811.253479,1326.784058 769.398621,1303.576782 731.590515,1273.385742 
	C694.367737,1243.661987 662.032288,1209.108887 637.290588,1168.258545 
	C605.514832,1115.794312 582.092773,1060.014160 573.751892,998.589478 
	C569.067139,964.089905 567.515442,929.583069 571.005798,894.936829 
	C580.065186,805.011902 613.088806,724.934326 671.417786,655.851135 
	C732.836914,583.107971 810.453308,535.858032 902.934021,513.660950 
	C946.064209,503.308960 989.940002,500.211395 1034.392944,503.356079 
	C1084.663940,506.912354 1132.001831,520.711731 1178.105591,540.181519 
	C1223.898071,559.519897 1263.844482,587.420471 1299.643799,621.554138 
	C1317.146362,638.242371 1332.938721,656.543579 1348.843750,674.726624 
	C1355.467285,682.298828 1360.157227,691.133362 1365.301758,699.682556 
	C1383.155884,729.352539 1399.401855,759.802490 1410.907715,793.006958 
z"/>
<path fill="#FEFEFE" opacity="1.000000" stroke="none" 
	d="
M1250.325928,1353.373047 
	C1249.119507,1351.841309 1247.529297,1350.817627 1250.138428,1349.385742 
	C1273.430542,1336.604248 1294.477661,1320.667725 1314.213257,1303.052368 
	C1339.308228,1331.001099 1365.908813,1356.974121 1390.947388,1384.416748 
	C1397.117432,1391.179199 1402.875122,1398.316284 1408.914917,1405.200073 
	C1409.983398,1406.417725 1410.438477,1407.096680 1408.952026,1408.326294 
	C1388.046265,1425.620361 1368.497559,1444.543701 1346.385498,1460.388428 
	C1346.267944,1460.472656 1346.068237,1460.442383 1345.519653,1460.520874 
	C1343.124268,1451.866577 1337.395386,1445.345215 1331.141479,1439.110107 
	C1303.406128,1411.458130 1276.550903,1382.972290 1250.325928,1353.373047 
z"/>
<path fill="#F18210" opacity="1.000000" stroke="none" 
	d="
M1545.970093,1084.010864 
	C1539.229614,1093.770508 1532.392700,1103.095215 1524.626343,1111.991455 
	C1522.598633,1109.364014 1523.691772,1107.511597 1525.021362,1105.760010 
	C1531.610107,1097.080322 1538.850464,1088.952026 1546.236816,1080.955200 
	C1547.047363,1080.077393 1548.329712,1079.635376 1550.507812,1078.316162 
	C1548.562012,1080.930420 1547.445923,1082.429932 1545.970093,1084.010864 
z"/>
<path fill="#2E2D2A" opacity="1.000000" stroke="none" 
	d="
M1536.602905,1047.565430 
	C1534.712158,1047.531738 1533.837402,1046.664551 1534.200073,1045.094727 
	C1534.452393,1044.002686 1535.404541,1044.298706 1536.181885,1044.630005 
	C1537.625488,1045.245361 1538.493896,1046.021362 1536.602905,1047.565430 
z"/>
<path fill="#FEFEFE" opacity="1.000000" stroke="none" 
	d="
M1098.158203,277.675079 
	C1097.348145,277.538025 1096.630737,277.051788 1095.968018,276.236145 
	C1097.102539,275.850616 1097.872192,276.281342 1098.158203,277.675079 
z"/>
<path fill="#FEFEFE" opacity="1.000000" stroke="none" 
	d="
M1098.473389,278.582520 
	C1098.580200,278.504852 1098.507812,278.275391 1098.102539,278.029724 
	C1097.922852,277.965393 1098.327393,277.995667 1098.327393,277.995667 
	C1098.327393,277.995667 1098.447388,278.382568 1098.473389,278.582520 
z"/>
<path fill="#FEFEFE" opacity="1.000000" stroke="none" 
	d="
M1096.070312,275.683594 
	C1095.649536,275.853668 1095.204834,275.727295 1094.907959,275.254364 
	C1095.386108,275.067596 1095.716187,275.227386 1096.070312,275.683594 
z"/>
<path fill="#010101" opacity="1.000000" stroke="none" 
	d="
M1416.182373,879.867432 
	C1420.046265,908.440674 1420.890015,936.618225 1419.296265,965.009094 
	C1417.232666,1001.770996 1409.335938,1037.301147 1397.848022,1072.007568 
	C1381.343994,1121.867798 1355.384033,1166.590454 1321.685913,1206.875488 
	C1310.022827,1220.818115 1297.847778,1234.278442 1284.368408,1246.440796 
	C1260.219604,1268.230347 1235.204468,1288.846558 1206.373169,1304.473999 
	C1181.064697,1318.192017 1155.529785,1331.268188 1127.918091,1339.767578 
	C1090.142822,1351.395264 1051.440063,1356.879150 1011.985413,1359.203369 
	C961.261963,1362.191650 912.772095,1352.293579 864.990173,1337.151245 
	C842.112366,1329.901245 820.168762,1320.100830 799.066589,1308.717163 
	C778.398682,1297.567993 759.437256,1283.725464 740.713135,1269.547974 
	C725.828003,1258.277100 712.245850,1245.634766 699.531555,1232.086914 
	C675.599487,1206.585693 654.143372,1179.323975 637.433472,1148.282593 
	C624.440552,1124.146240 612.526306,1099.718628 604.446411,1073.499512 
	C595.222595,1043.568237 588.270264,1013.256165 585.646484,981.883240 
	C583.794189,959.734863 583.042114,937.612671 584.169861,915.516357 
	C587.792786,844.532776 608.466858,778.692993 645.567505,718.056763 
	C669.320923,679.234802 698.814575,645.374817 733.709229,616.148621 
	C787.516296,571.082153 848.918396,541.680725 917.465210,527.259705 
	C957.793274,518.775452 998.621643,516.902588 1039.680420,520.203369 
	C1091.141602,524.340515 1139.489136,539.639282 1185.982666,561.398621 
	C1235.571533,584.606567 1277.085815,618.402283 1313.872192,658.573914 
	C1358.087402,706.857788 1386.809082,763.504944 1405.356079,825.744263 
	C1410.582764,843.284058 1413.554565,861.328491 1416.182373,879.867432 
z"/>
<path fill="#DCAF29" opacity="1.000000" stroke="none" 
	d="
M868.504395,1279.425415 
	C852.128235,1273.866211 837.210144,1266.287109 822.583923,1258.125122 
	C816.084961,1254.498413 809.376160,1251.173584 803.295776,1246.230957 
	C801.281799,1244.232056 801.757690,1241.957397 801.748291,1239.848267 
	C801.698425,1228.702637 801.626282,1217.555298 801.782471,1206.411743 
	C801.833435,1202.776855 800.586182,1200.547852 797.248535,1199.002197 
	C773.559082,1188.030884 752.608154,1172.664429 731.462280,1157.641113 
	C724.410706,1152.631226 718.195007,1146.539062 711.904541,1140.642578 
	C697.865967,1127.482788 683.137573,1114.904175 672.535522,1098.041748 
	C672.371582,1097.700439 672.232178,1097.786011 672.295776,1097.748779 
	C671.567566,1097.651611 671.559326,1096.979248 671.192993,1096.207275 
	C671.014648,1095.967163 670.995667,1095.998657 671.014038,1095.996948 
	C670.762756,1095.758667 670.523132,1095.494507 670.236938,1094.948242 
	C656.295288,1067.384033 646.900330,1038.563721 641.078796,1008.544678 
	C636.055725,982.643127 633.216003,956.494873 634.121216,930.112061 
	C636.583862,858.342590 656.337158,791.902100 696.740112,732.143250 
	C720.360474,697.206970 749.582947,667.539124 783.643799,642.148315 
	C791.871399,636.168884 800.315369,631.152893 808.974670,626.523132 
	C838.328186,610.828918 868.883362,598.054443 901.242126,590.036804 
	C918.522766,585.755127 936.064270,582.733826 953.758362,580.396423 
	C973.493469,577.789429 993.257141,577.422485 1013.067078,577.668030 
	C1036.099731,577.953430 1058.809082,581.198059 1081.442993,585.364380 
	C1108.472412,590.339783 1134.431641,598.708618 1159.609619,609.459106 
	C1180.453125,618.358826 1200.721436,628.494995 1219.791016,641.652832 
	C1220.111572,641.908386 1220.342285,642.132996 1220.502075,642.152466 
	C1221.299805,642.347229 1221.945923,642.496704 1222.569702,643.109375 
	C1222.589600,643.440552 1222.720215,643.286316 1222.687256,643.381836 
	C1223.040405,643.289551 1223.374878,643.346008 1223.715576,643.972778 
	C1223.781860,644.258118 1223.977295,644.059692 1223.867554,644.145386 
	C1224.125366,644.259888 1224.427368,644.415649 1224.751343,644.950317 
	C1224.838989,645.201782 1224.963135,645.051270 1224.885132,645.109863 
	C1225.139404,645.247864 1225.419434,645.412720 1225.809570,645.860229 
	C1242.509521,658.491272 1258.140381,671.969788 1272.107422,687.258423 
	C1307.606201,726.116150 1333.514771,770.616760 1350.991943,820.259827 
	C1359.119507,843.345703 1363.270752,867.189453 1366.822998,891.182800 
	C1369.802368,911.306641 1370.937988,931.659241 1369.785889,951.981445 
	C1367.166748,998.175659 1358.136841,1042.960693 1338.823853,1085.313232 
	C1337.027710,1089.252075 1334.984253,1093.067139 1332.253906,1096.870850 
	C1325.617188,1106.634888 1318.507080,1115.475952 1310.106445,1123.439697 
	C1298.512207,1134.431152 1287.181030,1145.707031 1274.639038,1155.613403 
	C1265.762573,1162.624390 1256.074219,1168.547485 1246.796021,1175.019287 
	C1234.768677,1183.408691 1222.754761,1191.745605 1209.324463,1197.793823 
	C1206.563843,1199.037109 1206.253906,1201.409058 1206.261230,1204.045776 
	C1206.291504,1215.032959 1206.284058,1226.020264 1206.267822,1237.007568 
	C1206.264648,1239.161255 1206.479980,1241.354858 1205.165649,1243.661133 
	C1184.109497,1258.013062 1161.871338,1269.382446 1138.330566,1279.073853 
	C1132.414062,1280.373169 1126.798584,1280.667603 1121.119873,1280.664429 
	C1041.376709,1280.620117 961.633484,1280.626709 881.890320,1280.655273 
	C877.544678,1280.656738 873.247375,1280.416748 868.504395,1279.425415 
z"/>
<path fill="#2C2B2A" opacity="1.000000" stroke="none" 
	d="
M868.251587,1279.601074 
	C870.002991,1279.304688 871.995789,1279.199829 873.988586,1279.199707 
	C959.345032,1279.191528 1044.701538,1279.193237 1130.057983,1279.188354 
	C1132.386719,1279.188232 1134.715332,1279.126221 1137.506348,1279.134399 
	C1116.692383,1287.177490 1095.161133,1294.303589 1072.649780,1298.014404 
	C1053.685791,1301.140259 1034.621826,1303.052124 1015.416016,1304.285156 
	C997.242737,1305.451782 979.364563,1303.432251 961.387146,1302.087891 
	C942.014465,1300.639282 923.078247,1296.651978 904.247681,1292.062988 
	C891.955078,1289.067383 880.333435,1284.141846 868.251587,1279.601074 
z"/>
<path fill="#2B2A29" opacity="1.000000" stroke="none" 
	d="
M672.249268,1098.070312 
	C674.700134,1098.924316 675.762024,1101.313965 677.320068,1103.216309 
	C704.429688,1136.315186 737.417297,1162.447876 773.548157,1184.943604 
	C781.771179,1190.063354 790.367004,1194.380005 799.041992,1198.584839 
	C801.915344,1199.977539 803.128418,1201.660400 803.082703,1205.068359 
	C802.903931,1218.392578 803.116882,1231.722046 803.128845,1245.515625 
	C794.272339,1241.633667 786.147095,1236.100708 778.677490,1229.891846 
	C762.720642,1216.628418 746.275635,1203.723755 732.727173,1187.939575 
	C715.886902,1168.320557 699.041016,1148.606323 686.345520,1125.831299 
	C681.332153,1116.837646 675.838440,1108.105103 672.249268,1098.070312 
z"/>
<path fill="#2B2A29" opacity="1.000000" stroke="none" 
	d="
M1205.245117,1243.835327 
	C1204.955933,1230.151733 1205.079224,1216.347900 1204.940918,1202.546753 
	C1204.911499,1199.605957 1205.965088,1198.189697 1208.478394,1196.857666 
	C1244.925171,1177.539795 1278.050537,1153.715698 1307.437744,1124.640015 
	C1316.109009,1116.060547 1323.514893,1106.503662 1331.812256,1097.290283 
	C1329.791626,1105.801758 1324.769897,1113.113525 1320.483643,1120.742310 
	C1310.648193,1138.246948 1299.767334,1155.115967 1286.691162,1170.387329 
	C1274.756592,1184.325439 1262.879761,1198.257812 1248.660156,1210.178101 
	C1234.678467,1221.898926 1220.537720,1233.315308 1205.245117,1243.835327 
z"/>
<path fill="#2E2D2A" opacity="1.000000" stroke="none" 
	d="
M1220.060791,641.563965 
	C1216.329590,640.957336 1213.261353,638.572021 1210.056519,636.590454 
	C1185.486572,621.399353 1159.268311,609.599976 1132.158447,599.982117 
	C1113.878052,593.496643 1094.934448,589.083496 1075.754639,585.605591 
	C1046.822144,580.359375 1017.753723,577.743652 988.392456,578.825195 
	C965.270752,579.677002 942.430542,582.805420 919.693115,587.244324 
	C892.636047,592.526550 866.650879,600.961914 841.492554,611.974304 
	C823.217224,619.973694 805.461365,629.081360 788.545349,639.733765 
	C787.282654,640.528809 785.933533,641.186829 784.261047,641.920044 
	C784.025452,639.924744 785.693420,639.321289 787.054565,638.392334 
	C820.169006,615.791809 855.181396,597.113892 893.895569,585.835083 
	C916.040466,579.383545 938.276733,573.900635 961.373047,571.758179 
	C975.882080,570.412292 990.434265,569.657898 1004.945496,568.551636 
	C1013.541809,567.896240 1022.446655,569.424133 1031.159180,570.262146 
	C1046.463745,571.734070 1061.730957,573.814331 1076.815186,576.955688 
	C1102.259399,582.254700 1126.832275,590.259216 1150.586182,600.788574 
	C1173.583862,610.982666 1195.029175,623.952820 1216.159058,637.487366 
	C1217.711182,638.481445 1219.319092,639.362244 1220.060791,641.563965 
z"/>
<path fill="#2E2D2A" opacity="1.000000" stroke="none" 
	d="
M1222.582275,643.082642 
	C1222.053589,643.191589 1221.517578,642.942688 1220.821777,642.432861 
	C1221.404297,641.993774 1222.079102,642.049500 1222.582275,643.082642 
z"/>
<path fill="#2B2A29" opacity="1.000000" stroke="none" 
	d="
M671.006165,1096.296021 
	C671.439209,1096.353882 671.863770,1096.740479 672.323853,1097.419434 
	C671.575134,1097.763184 671.181030,1097.326172 671.006165,1096.296021 
z"/>
<path fill="#2B2A29" opacity="1.000000" stroke="none" 
	d="
M670.179443,1094.978271 
	C670.439331,1094.935791 670.714233,1095.181641 671.010803,1095.711426 
	C670.753113,1095.752441 670.473755,1095.509644 670.179443,1094.978271 
z"/>
<path fill="#2E2D2A" opacity="1.000000" stroke="none" 
	d="
M1223.731567,643.974731 
	C1223.422363,644.298279 1223.119385,644.186096 1222.763672,643.699463 
	C1222.996582,643.548706 1223.338989,643.620056 1223.731567,643.974731 
z"/>
<path fill="#2E2D2A" opacity="1.000000" stroke="none" 
	d="
M1225.874146,645.796204 
	C1225.654053,645.918884 1225.327271,645.794617 1224.903809,645.419373 
	C1225.127197,645.295349 1225.447388,645.422302 1225.874146,645.796204 
z"/>
<path fill="#2E2D2A" opacity="1.000000" stroke="none" 
	d="
M1224.789062,644.923706 
	C1224.534668,645.045776 1224.230225,644.889771 1223.841797,644.482422 
	C1224.084961,644.369263 1224.412109,644.507507 1224.789062,644.923706 
z"/>
<path fill="#2A2A29" opacity="1.000000" stroke="none" 
	d="
M1058.455322,969.569946 
	C1063.528809,953.125916 1070.717407,938.291931 1081.739014,925.413513 
	C1099.644165,904.492188 1121.960327,891.112122 1149.255981,887.311890 
	C1193.045898,881.215210 1227.996216,897.333984 1255.187988,931.468933 
	C1272.206543,952.833069 1280.491943,977.574463 1280.344604,1004.559570 
	C1280.073120,1054.291016 1251.519775,1100.046753 1200.041016,1115.881714 
	C1168.179321,1125.682495 1137.382812,1121.114380 1109.266479,1102.815063 
	C1084.359009,1086.604248 1067.509644,1064.046265 1059.068970,1035.445190 
	C1053.060059,1015.084106 1052.196899,994.546509 1057.596680,973.882141 
	C1057.932007,972.598389 1058.092529,971.268860 1058.455322,969.569946 
z"/>
<path fill="#DCDCDB" opacity="1.000000" stroke="none" 
	d="
M971.562988,724.312988 
	C960.219055,772.001282 929.450623,803.764038 889.228149,827.845764 
	C870.232666,839.218567 849.667358,846.854980 827.816833,850.433289 
	C800.751160,854.865784 774.354858,853.359192 750.188293,838.570923 
	C725.907043,823.712524 715.545593,797.258911 718.690308,770.077393 
	C722.071655,740.850525 736.142944,717.138855 755.526794,695.943359 
	C776.236572,673.298035 801.187195,656.857300 829.691711,645.907593 
	C856.736084,635.518738 884.719543,631.211853 913.351379,637.524353 
	C942.574280,643.967163 965.062317,662.025330 971.566956,693.554749 
	C973.640503,703.605835 972.669922,713.776917 971.562988,724.312988 
z"/>
<path fill="#2A2A29" opacity="1.000000" stroke="none" 
	d="
M860.019165,893.904968 
	C901.210571,905.440063 927.999573,931.763977 940.211792,971.905396 
	C957.914001,1030.092651 929.967346,1093.241455 872.435364,1115.426025 
	C827.477539,1132.761963 776.843872,1118.159790 746.542603,1078.862305 
	C731.707214,1059.622559 723.849487,1037.694702 722.710449,1013.352478 
	C720.938110,975.475403 733.490601,943.330872 761.874756,918.099792 
	C783.240601,899.107422 808.569214,889.980042 837.400269,890.987183 
	C844.929016,891.250183 852.306763,892.123047 860.019165,893.904968 
z"/>
<path fill="#FFFFFE" opacity="1.000000" stroke="none" 
	d="
M1161.732178,641.273315 
	C1204.457031,668.196655 1239.257935,703.051331 1269.640869,742.571594 
	C1279.478271,755.367554 1289.700806,767.940186 1297.052734,782.442444 
	C1301.334106,790.887573 1303.554077,799.859985 1303.111816,809.412720 
	C1302.386108,825.081116 1290.526855,832.363647 1276.432617,825.456482 
	C1264.543091,819.629578 1256.384033,809.739563 1249.044922,799.062256 
	C1230.312012,771.808289 1209.610718,746.186096 1185.707397,723.254639 
	C1146.252441,685.403931 1099.621338,659.856262 1047.909302,643.054810 
	C1044.747925,642.027710 1041.539551,641.143188 1038.387207,640.090332 
	C1025.663330,635.840820 1018.465698,623.028198 1021.713989,610.481140 
	C1025.187622,597.063416 1037.532593,588.764771 1050.972290,592.036255 
	C1070.078857,596.687195 1088.322632,604.046204 1106.362183,611.817627 
	C1125.509766,620.066467 1143.767456,630.017151 1161.732178,641.273315 
z"/>
<path fill="#2B2B29" opacity="1.000000" stroke="none" 
	d="
M898.585693,852.786621 
	C907.356079,839.505249 921.469666,836.905762 934.183167,845.864868 
	C937.625366,848.290527 940.344543,851.432556 943.208679,854.446838 
	C954.103699,865.912598 965.022888,877.355286 975.917908,888.820984 
	C984.202026,897.538818 988.029724,907.829041 984.125671,919.441895 
	C979.157471,934.219727 962.353516,939.413452 948.882629,931.057007 
	C946.176453,929.378235 943.769836,927.350769 941.587219,925.039429 
	C929.357178,912.087891 917.046082,899.211914 904.911255,886.171936 
	C895.974426,876.568481 892.964966,865.637817 898.585693,852.786621 
z"/>
<path fill="#2B2B29" opacity="1.000000" stroke="none" 
	d="
M1037.163086,935.608398 
	C1021.075623,937.822754 1013.098206,930.022156 1010.060425,920.934143 
	C1006.734497,910.984497 1008.368652,901.267700 1015.437622,893.414734 
	C1028.455811,878.952637 1041.678345,864.647705 1055.376953,850.833862 
	C1065.326294,840.800659 1077.195557,839.180115 1087.142700,845.123047 
	C1097.275269,851.176880 1100.985962,864.936768 1096.093994,876.874390 
	C1092.668457,885.233765 1085.688721,890.597046 1079.954468,896.975952 
	C1071.393066,906.499817 1062.377319,915.614563 1053.604980,924.950439 
	C1049.089478,929.755920 1044.052246,933.707153 1037.163086,935.608398 
z"/>
<path fill="#2D2C29" opacity="1.000000" stroke="none" 
	d="
M990.000000,1155.741577 
	C976.679260,1155.742798 963.858398,1155.756836 951.037781,1155.722900 
	C949.948975,1155.720093 948.514160,1156.381348 947.835632,1155.136841 
	C947.147766,1153.875000 948.507507,1153.042358 949.113831,1152.146851 
	C965.712097,1127.635254 982.404419,1103.187012 998.899780,1078.606445 
	C1001.231750,1075.131348 1002.249207,1075.614258 1004.327148,1078.704834 
	C1020.845886,1103.272827 1037.495605,1127.752686 1054.086426,1152.272339 
	C1054.690063,1153.164429 1056.101440,1153.978516 1055.214600,1155.245483 
	C1054.452637,1156.333862 1053.047363,1155.722778 1051.939819,1155.724243 
	C1031.459839,1155.751221 1010.979919,1155.742676 990.000000,1155.741577 
z"/>
<path fill="#FFFEFD" opacity="1.000000" stroke="none" 
	d="
M1296.690674,945.386230 
	C1286.944458,937.079956 1284.120361,925.679321 1288.949707,915.070007 
	C1293.328857,905.449646 1304.069580,899.196228 1314.044312,900.459229 
	C1326.121582,901.988464 1334.912476,910.297241 1336.445923,922.478882 
	C1337.722778,932.621399 1333.766479,940.930969 1325.132568,946.360901 
	C1315.782104,952.241455 1306.206543,951.745911 1296.690674,945.386230 
z"/>
</svg>